<svg width="21" height="20" viewBox="0 0 21 20" fill="none" xmlns="http://www.w3.org/2000/svg">
<path d="M9.99766 9.14022L9.53125 11.0059L11.3969 10.5394C11.4848 10.5175 11.5651 10.472 11.6292 10.4079L18.6777 3.35941C18.873 3.16415 18.873 2.84757 18.6777 2.65231L17.8848 1.85941C17.6895 1.66415 17.373 1.66415 17.1777 1.85941L10.1292 8.90793C10.0651 8.97201 10.0196 9.0523 9.99766 9.14022Z" stroke="white" stroke-width="1.5" stroke-linejoin="round"/>
<path d="M10.5312 1.00586H3.53125C2.42668 1.00586 1.53125 1.90129 1.53125 3.00586V17.0059C1.53125 18.1104 2.42668 19.0059 3.53125 19.0059H17.5312C18.6358 19.0059 19.5312 18.1104 19.5312 17.0059V10.0059" stroke="white" stroke-width="1.5" stroke-linecap="round"/>
</svg>
