<svg width="21" height="20" viewBox="0 0 21 20" fill="none" xmlns="http://www.w3.org/2000/svg">
<path d="M10.0797 8.9178L9.61328 10.7834L11.4789 10.317C11.5668 10.2951 11.6471 10.2496 11.7112 10.1855L18.7597 3.137C18.955 2.94174 18.955 2.62516 18.7597 2.42989L17.9668 1.637C17.7716 1.44174 17.455 1.44174 17.2597 1.637L10.2112 8.68552C10.1471 8.7496 10.1017 8.82989 10.0797 8.9178Z" stroke="black" stroke-width="1.5" stroke-linejoin="round"/>
<path d="M10.6133 0.783447H3.61328C2.50871 0.783447 1.61328 1.67888 1.61328 2.78345V16.7834C1.61328 17.888 2.50871 18.7834 3.61328 18.7834H17.6133C18.7179 18.7834 19.6133 17.888 19.6133 16.7834V9.78345" stroke="black" stroke-width="1.5" stroke-linecap="round"/>
</svg>
