<svg width="18" height="18" viewBox="0 0 18 18" fill="none" xmlns="http://www.w3.org/2000/svg">
<path d="M8.63178 8.46761L8.33203 9.66659L9.53101 9.36684C9.61892 9.34486 9.69921 9.2994 9.76329 9.23532L14.3118 4.68681C14.5071 4.49154 14.5071 4.17496 14.3118 3.9797L14.0189 3.68681C13.8237 3.49154 13.5071 3.49154 13.3118 3.6868L8.76329 8.23532C8.69921 8.2994 8.65375 8.37969 8.63178 8.46761Z" stroke="white" stroke-linejoin="round"/>
<path d="M9 3H5C3.89543 3 3 3.89543 3 5V13C3 14.1046 3.89543 15 5 15H13C14.1046 15 15 14.1046 15 13V9" stroke="white" stroke-linecap="round"/>
</svg>
