<svg width="12" height="21" viewBox="0 0 12 21" fill="none" xmlns="http://www.w3.org/2000/svg">
<path d="M3.70747 12.2224V18.8418C3.70747 19.1179 3.93134 19.3418 4.20749 19.3418L7.09638 19.3416C7.37251 19.3416 7.59635 19.1178 7.59635 18.8416V12.2222C7.59635 11.9461 7.82021 11.7222 8.09635 11.7222H9.46056C9.67463 11.7222 9.86495 11.586 9.9339 11.3833L10.7048 9.11785C10.8151 8.79353 10.574 8.45679 10.2314 8.45679H8.09635C7.82021 8.45679 7.59635 8.23293 7.59635 7.95679V5.69137C7.59635 5.41522 7.82023 5.19136 8.09638 5.19137L10.4297 5.19151C10.7058 5.19152 10.9297 4.96766 10.9297 4.69151V1.85494C10.9297 1.58953 10.7198 1.36967 10.4546 1.35946C4.61677 1.13478 3.50946 3.03832 3.68445 7.93074C3.69468 8.21672 3.46743 8.45698 3.18127 8.45698H1.42969C1.15355 8.45698 0.929688 8.68084 0.929688 8.95698V11.2224C0.929688 11.4986 1.15355 11.7224 1.42969 11.7224H3.20747C3.48361 11.7224 3.70747 11.9463 3.70747 12.2224Z" stroke="black" stroke-width="1.5"/>
</svg>
