<svg width="12" height="21" viewBox="0 0 12 21" fill="none" xmlns="http://www.w3.org/2000/svg">
<path d="M3.62543 12.4448V19.0642C3.62543 19.3403 3.84931 19.5642 4.12546 19.5642L7.01435 19.564C7.29048 19.564 7.51432 19.3402 7.51432 19.064V12.4446C7.51432 12.1685 7.73818 11.9446 8.01432 11.9446H9.37852C9.5926 11.9446 9.78292 11.8084 9.85187 11.6057L10.6227 9.34027C10.7331 9.01594 10.492 8.6792 10.1494 8.6792H8.01432C7.73818 8.6792 7.51432 8.45534 7.51432 8.1792V5.91379C7.51432 5.63763 7.7382 5.41377 8.01435 5.41379L10.3476 5.41392C10.6238 5.41393 10.8477 5.19007 10.8477 4.91392V2.07735C10.8477 1.81195 10.6377 1.59208 10.3725 1.58187C4.53474 1.35719 3.42743 3.26074 3.60242 8.15315C3.61265 8.43913 3.3854 8.67939 3.09923 8.67939H1.34766C1.07151 8.67939 0.847656 8.90325 0.847656 9.17939V11.4448C0.847656 11.721 1.07151 11.9448 1.34766 11.9448H3.12543C3.40158 11.9448 3.62543 12.1687 3.62543 12.4448Z" stroke="white" stroke-width="1.5"/>
</svg>
