<svg width="19" height="19" viewBox="0 0 19 19" fill="none" xmlns="http://www.w3.org/2000/svg">
<g clip-path="url(#clip0_153_41)">
<path d="M9.55859 2.18491C11.9633 2.18491 12.248 2.19546 13.1938 2.23765C14.0727 2.27632 14.5473 2.42397 14.8637 2.54702C15.282 2.70874 15.5844 2.90562 15.8973 3.21851C16.2137 3.53491 16.407 3.83374 16.5688 4.2521C16.6918 4.56851 16.8395 5.04663 16.8781 5.92202C16.9203 6.87124 16.9309 7.15601 16.9309 9.55718C16.9309 11.9619 16.9203 12.2466 16.8781 13.1923C16.8395 14.0712 16.6918 14.5458 16.5688 14.8623C16.407 15.2806 16.2102 15.583 15.8973 15.8958C15.5809 16.2123 15.282 16.4056 14.8637 16.5673C14.5473 16.6904 14.0691 16.838 13.1938 16.8767C12.2445 16.9189 11.9598 16.9294 9.55859 16.9294C7.15391 16.9294 6.86914 16.9189 5.92344 16.8767C5.04453 16.838 4.56992 16.6904 4.25352 16.5673C3.83516 16.4056 3.53281 16.2087 3.21992 15.8958C2.90352 15.5794 2.71016 15.2806 2.54844 14.8623C2.42539 14.5458 2.27773 14.0677 2.23906 13.1923C2.19688 12.2431 2.18633 11.9583 2.18633 9.55718C2.18633 7.15249 2.19688 6.86772 2.23906 5.92202C2.27773 5.04311 2.42539 4.56851 2.54844 4.2521C2.71016 3.83374 2.90703 3.5314 3.21992 3.21851C3.53633 2.9021 3.83516 2.70874 4.25352 2.54702C4.56992 2.42397 5.04805 2.27632 5.92344 2.23765C6.86914 2.19546 7.15391 2.18491 9.55859 2.18491ZM9.55859 0.564209C7.11523 0.564209 6.80938 0.574756 5.84961 0.616943C4.89336 0.659131 4.23594 0.813818 3.66641 1.0353C3.07227 1.26733 2.56953 1.57319 2.07031 2.07593C1.56758 2.57515 1.26172 3.07788 1.02969 3.66851C0.808203 4.24155 0.653516 4.89546 0.611328 5.85171C0.569141 6.81499 0.558594 7.12085 0.558594 9.56421C0.558594 12.0076 0.569141 12.3134 0.611328 13.2732C0.653516 14.2294 0.808203 14.8869 1.02969 15.4564C1.26172 16.0505 1.56758 16.5533 2.07031 17.0525C2.56953 17.5517 3.07227 17.8611 3.66289 18.0896C4.23594 18.3111 4.88984 18.4658 5.84609 18.508C6.80586 18.5501 7.11172 18.5607 9.55508 18.5607C11.9984 18.5607 12.3043 18.5501 13.2641 18.508C14.2203 18.4658 14.8777 18.3111 15.4473 18.0896C16.0379 17.8611 16.5406 17.5517 17.0398 17.0525C17.5391 16.5533 17.8484 16.0505 18.077 15.4599C18.2984 14.8869 18.4531 14.233 18.4953 13.2767C18.5375 12.3169 18.548 12.0111 18.548 9.56772C18.548 7.12437 18.5375 6.81851 18.4953 5.85874C18.4531 4.90249 18.2984 4.24507 18.077 3.67554C17.8555 3.07788 17.5496 2.57515 17.0469 2.07593C16.5477 1.57671 16.0449 1.26733 15.4543 1.03882C14.8813 0.817334 14.2273 0.662646 13.2711 0.620459C12.3078 0.574756 12.002 0.564209 9.55859 0.564209Z" fill="white"/>
<path d="M9.56055 4.94116C7.0082 4.94116 4.9375 7.01187 4.9375 9.56421C4.9375 12.1166 7.0082 14.1873 9.56055 14.1873C12.1129 14.1873 14.1836 12.1166 14.1836 9.56421C14.1836 7.01187 12.1129 4.94116 9.56055 4.94116ZM9.56055 12.563C7.90469 12.563 6.56172 11.2201 6.56172 9.56421C6.56172 7.90835 7.90469 6.56538 9.56055 6.56538C11.2164 6.56538 12.5594 7.90835 12.5594 9.56421C12.5594 11.2201 11.2164 12.563 9.56055 12.563Z" fill="white"/>
<path d="M15.4437 4.75838C15.4437 5.35603 14.9586 5.83767 14.3645 5.83767C13.7668 5.83767 13.2852 5.35252 13.2852 4.75838C13.2852 4.16072 13.7703 3.67908 14.3645 3.67908C14.9586 3.67908 15.4437 4.16423 15.4437 4.75838Z" fill="white"/>
</g>
<defs>
<clipPath id="clip0_153_41">
<rect width="18" height="18" fill="white" transform="translate(0.558594 0.564209)"/>
</clipPath>
</defs>
</svg>
