<svg width="19" height="19" viewBox="0 0 19 19" fill="none" xmlns="http://www.w3.org/2000/svg">
<g clip-path="url(#clip0_122_150)">
<path d="M9.64063 1.9625C12.0453 1.9625 12.3301 1.97305 13.2758 2.01523C14.1547 2.05391 14.6293 2.20156 14.9457 2.32461C15.3641 2.48633 15.6664 2.6832 15.9793 2.99609C16.2957 3.3125 16.4891 3.61133 16.6508 4.02969C16.7738 4.34609 16.9215 4.82422 16.9602 5.69961C17.0023 6.64883 17.0129 6.93359 17.0129 9.33477C17.0129 11.7395 17.0023 12.0242 16.9602 12.9699C16.9215 13.8488 16.7738 14.3234 16.6508 14.6398C16.4891 15.0582 16.2922 15.3605 15.9793 15.6734C15.6629 15.9898 15.3641 16.1832 14.9457 16.3449C14.6293 16.468 14.1512 16.6156 13.2758 16.6543C12.3266 16.6965 12.0418 16.707 9.64063 16.707C7.23594 16.707 6.95117 16.6965 6.00547 16.6543C5.12656 16.6156 4.65195 16.468 4.33555 16.3449C3.91719 16.1832 3.61484 15.9863 3.30195 15.6734C2.98555 15.357 2.79219 15.0582 2.63047 14.6398C2.50742 14.3234 2.35977 13.8453 2.32109 12.9699C2.27891 12.0207 2.26836 11.7359 2.26836 9.33477C2.26836 6.93008 2.27891 6.64531 2.32109 5.69961C2.35977 4.8207 2.50742 4.34609 2.63047 4.02969C2.79219 3.61133 2.98906 3.30898 3.30195 2.99609C3.61836 2.67969 3.91719 2.48633 4.33555 2.32461C4.65195 2.20156 5.13008 2.05391 6.00547 2.01523C6.95117 1.97305 7.23594 1.9625 9.64063 1.9625ZM9.64063 0.341797C7.19727 0.341797 6.89141 0.352344 5.93164 0.394531C4.97539 0.436719 4.31797 0.591406 3.74844 0.812891C3.1543 1.04492 2.65156 1.35078 2.15234 1.85352C1.64961 2.35273 1.34375 2.85547 1.11172 3.44609C0.890234 4.01914 0.735547 4.67305 0.693359 5.6293C0.651172 6.59258 0.640625 6.89844 0.640625 9.3418C0.640625 11.7852 0.651172 12.091 0.693359 13.0508C0.735547 14.007 0.890234 14.6645 1.11172 15.234C1.34375 15.8281 1.64961 16.3309 2.15234 16.8301C2.65156 17.3293 3.1543 17.6387 3.74492 17.8672C4.31797 18.0887 4.97188 18.2434 5.92813 18.2855C6.88789 18.3277 7.19375 18.3383 9.63711 18.3383C12.0805 18.3383 12.3863 18.3277 13.3461 18.2855C14.3023 18.2434 14.9598 18.0887 15.5293 17.8672C16.1199 17.6387 16.6227 17.3293 17.1219 16.8301C17.6211 16.3309 17.9305 15.8281 18.159 15.2375C18.3805 14.6645 18.5352 14.0105 18.5773 13.0543C18.6195 12.0945 18.6301 11.7887 18.6301 9.34531C18.6301 6.90195 18.6195 6.59609 18.5773 5.63633C18.5352 4.68008 18.3805 4.02266 18.159 3.45312C17.9375 2.85547 17.6316 2.35273 17.1289 1.85352C16.6297 1.3543 16.127 1.04492 15.5363 0.816406C14.9633 0.594922 14.3094 0.440234 13.3531 0.398047C12.3898 0.352344 12.084 0.341797 9.64063 0.341797Z" fill="#000100"/>
<path d="M9.63867 4.71875C7.08633 4.71875 5.01562 6.78945 5.01562 9.3418C5.01562 11.8941 7.08633 13.9648 9.63867 13.9648C12.191 13.9648 14.2617 11.8941 14.2617 9.3418C14.2617 6.78945 12.191 4.71875 9.63867 4.71875ZM9.63867 12.3406C7.98281 12.3406 6.63984 10.9977 6.63984 9.3418C6.63984 7.68594 7.98281 6.34297 9.63867 6.34297C11.2945 6.34297 12.6375 7.68594 12.6375 9.3418C12.6375 10.9977 11.2945 12.3406 9.63867 12.3406Z" fill="#000100"/>
<path d="M15.5258 4.53596C15.5258 5.13362 15.0406 5.61526 14.4465 5.61526C13.8488 5.61526 13.3672 5.13011 13.3672 4.53596C13.3672 3.93831 13.8523 3.45667 14.4465 3.45667C15.0406 3.45667 15.5258 3.94182 15.5258 4.53596Z" fill="#000100"/>
</g>
<defs>
<clipPath id="clip0_122_150">
<rect width="18" height="18" fill="white" transform="translate(0.640625 0.341797)"/>
</clipPath>
</defs>
</svg>
