<svg width="18" height="19" viewBox="0 0 18 19" fill="none" xmlns="http://www.w3.org/2000/svg">
<path fill-rule="evenodd" clip-rule="evenodd" d="M12.4713 7.65659C12.4713 10.6998 10.0043 13.1669 6.96103 13.1669C3.9178 13.1669 1.45077 10.6998 1.45077 7.65659C1.45077 4.61335 3.9178 2.14632 6.96103 2.14632C10.0043 2.14632 12.4713 4.61335 12.4713 7.65659ZM10.3763 13.6293C9.36999 14.2059 8.20401 14.5356 6.96103 14.5356C3.16186 14.5356 0.0820312 11.4558 0.0820312 7.65659C0.0820312 3.85742 3.16186 0.777588 6.96103 0.777588C10.7602 0.777588 13.84 3.85742 13.84 7.65659C13.84 8.97781 13.4676 10.212 12.8219 11.26L17.6648 16.1029C18.0212 16.4593 18.0212 17.037 17.6648 17.3934L16.5479 18.5103C16.1915 18.8667 15.6137 18.8667 15.2574 18.5103L10.3763 13.6293ZM12.6164 12.9902L16.3744 16.7481L15.9026 17.2199L12.1447 13.4619L12.6164 12.9902Z" fill="black"/>
<path d="M11.0316 5.09029C9.63924 3.08441 6.9313 2.4342 4.76687 3.63779V3.63779C4.22653 4.09066 4.63423 4.96668 5.32865 4.84489L5.45136 4.82337C6.9602 3.99703 8.83179 4.42474 9.84039 5.77805V5.77805C10.3506 6.36926 11.3134 5.81864 11.0316 5.09029V5.09029Z" fill="black"/>
</svg>
