<svg width="21" height="17" viewBox="0 0 21 17" fill="none" xmlns="http://www.w3.org/2000/svg">
<path d="M1.01953 3.49815C1.01953 3.25624 1.06468 3.02653 1.14641 2.81671L9.45971 10.5975C9.99025 11.0941 10.8105 11.0941 11.3411 10.5975L19.6544 2.81671C19.7361 3.02653 19.7812 3.25624 19.7812 3.49815V13.8277C19.7812 14.8534 18.9694 15.66 17.9985 15.66H2.80225C1.83134 15.66 1.01953 14.8534 1.01953 13.8277V3.49815ZM17.9985 1.66577C18.2018 1.66577 18.3981 1.70112 18.5814 1.76644L10.4004 9.42345L2.21937 1.76644C2.4027 1.70112 2.59898 1.66577 2.80225 1.66577H17.9985Z" stroke="white" stroke-width="1.5" stroke-linejoin="round"/>
</svg>
