<svg width="21" height="17" viewBox="0 0 21 17" fill="none" xmlns="http://www.w3.org/2000/svg">
<path d="M1.10156 3.27574C1.10156 3.03383 1.14671 2.80412 1.22844 2.5943L9.54174 10.3751C10.0723 10.8717 10.8926 10.8717 11.4231 10.3751L19.7364 2.5943C19.8181 2.80412 19.8633 3.03383 19.8633 3.27574V13.6052C19.8633 14.631 19.0515 15.4376 18.0806 15.4376H2.88428C1.91337 15.4376 1.10156 14.631 1.10156 13.6052V3.27574ZM18.0806 1.44336C18.2838 1.44336 18.4801 1.47871 18.6634 1.54402L10.4824 9.20103L2.3014 1.54402C2.48473 1.47871 2.68102 1.44336 2.88428 1.44336H18.0806Z" stroke="black" stroke-width="1.5" stroke-linejoin="round"/>
</svg>
