<svg width="19" height="19" viewBox="0 0 19 19" fill="none" xmlns="http://www.w3.org/2000/svg">
<path d="M8.95907 17.2175C3.84392 11.4381 3.37437 7.58823 8.21075 1.31046C8.35587 1.12209 8.61707 1.062 8.82933 1.16916L11.4959 2.51545C11.7218 2.6295 11.8269 2.89435 11.7406 3.13224L10.7174 5.95398C10.6486 6.14374 10.4724 6.27352 10.2708 6.28298L8.58877 6.36195C8.40017 6.37081 8.23157 6.48565 8.15794 6.65951C7.30958 8.66259 7.3474 9.83839 8.409 11.6712C8.48978 11.8107 8.63549 11.8999 8.79617 11.9124L10.5871 12.0514C10.766 12.0652 10.9237 12.1739 11.0004 12.3361L12.302 15.0886C12.4102 15.3174 12.3304 15.5909 12.1162 15.7256L9.59714 17.3097C9.39151 17.439 9.12007 17.3994 8.95907 17.2175Z" stroke="white" stroke-width="1.5" stroke-linecap="round"/>
<path d="M14.1914 7.01123C15.2042 8.39691 15.0968 9.33217 14.1914 10.5376" stroke="white" stroke-width="1.5" stroke-linecap="round"/>
<path d="M15.5156 5.24805C17.2788 7.45205 17.4409 9.5937 15.9564 12.3009" stroke="white" stroke-width="1.5" stroke-linecap="round"/>
</svg>
