<svg width="19" height="18" viewBox="0 0 19 18" fill="none" xmlns="http://www.w3.org/2000/svg">
<path d="M9.0411 16.9951C3.92595 11.2157 3.4564 7.36581 8.29278 1.08804C8.4379 0.899676 8.6991 0.839584 8.91136 0.946751L11.578 2.29304C11.8039 2.40709 11.9089 2.67193 11.8227 2.90983L10.7994 5.73157C10.7306 5.92133 10.5545 6.0511 10.3528 6.06057L8.6708 6.13954C8.4822 6.1484 8.3136 6.26324 8.23997 6.4371C7.39162 8.44018 7.42943 9.61597 8.49103 11.4488C8.57181 11.5883 8.71752 11.6775 8.8782 11.69L10.6691 11.8289C10.848 11.8428 11.0058 11.9515 11.0825 12.1137L12.384 14.8662C12.4922 15.095 12.4124 15.3685 12.1982 15.5032L9.67917 17.0873C9.47354 17.2166 9.2021 17.177 9.0411 16.9951Z" stroke="black" stroke-width="1.5" stroke-linecap="round"/>
<path d="M14.2734 6.78882C15.2862 8.1745 15.1788 9.10976 14.2734 10.3152" stroke="black" stroke-width="1.5" stroke-linecap="round"/>
<path d="M15.5977 5.02563C17.3609 7.22964 17.523 9.37128 16.0385 12.0784" stroke="black" stroke-width="1.5" stroke-linecap="round"/>
</svg>
