<svg width="101" height="101" viewBox="0 0 101 101" fill="none" xmlns="http://www.w3.org/2000/svg">
<path fill-rule="evenodd" clip-rule="evenodd" d="M100.848 50.6888C100.848 78.3031 78.4619 100.689 50.8477 100.689C23.2334 100.689 0.847656 78.3031 0.847656 50.6888C0.847656 23.0746 23.2334 0.688843 50.8477 0.688843C78.4619 0.688843 100.848 23.0746 100.848 50.6888ZM52.9297 79.3802V41.248H57.8869V62.711L78.3148 41.248H81.0385L67.202 56.0106L84.198 79.3802H78.5327L64.0425 59.388L57.8869 65.9794V79.3802H52.9297ZM21.5417 49.0923H40.3354L45.5649 60.3141H50.849L33.0903 22.182H30.3666L14.2422 60.3141H16.748L21.5417 49.0923ZM30.639 28.2831L39.1914 46.641H22.5768L30.4211 28.2831H30.639Z" fill="black"/>
</svg>
