<svg width="101" height="101" viewBox="0 0 101 101" fill="none" xmlns="http://www.w3.org/2000/svg">
<path fill-rule="evenodd" clip-rule="evenodd" d="M100.758 50.6888C100.758 78.3031 78.372 100.689 50.7578 100.689C23.1436 100.689 0.757812 78.3031 0.757812 50.6888C0.757812 23.0746 23.1436 0.688843 50.7578 0.688843C78.372 0.688843 100.758 23.0746 100.758 50.6888ZM52.8398 79.3802V41.248H57.797V62.711L78.2249 41.248H80.9486L67.1122 56.0106L84.1082 79.3802H78.4428L63.9526 59.388L57.797 65.9794V79.3802H52.8398ZM21.4519 49.0923H40.2455L45.4751 60.3141H50.7591L33.0005 22.182H30.2767L14.1523 60.3141H16.6582L21.4519 49.0923ZM30.5491 28.2831L39.1016 46.641H22.4869L30.3312 28.2831H30.5491Z" fill="white"/>
</svg>
