<svg width="151" height="43" viewBox="0 0 151 43" fill="none" xmlns="http://www.w3.org/2000/svg">
<path d="M132.406 41.8286V26.6085H134.385V35.1753L142.539 26.6085H143.626L138.103 32.5009L144.887 41.8286H142.625L136.842 33.849L134.385 36.4799V41.8286H132.406Z" fill="black"/>
<path d="M122.766 37.3496H115.265L113.352 41.8286H112.352L118.788 26.6085H119.875L126.963 41.8286H124.854L122.766 37.3496ZM122.31 36.3711L118.896 29.0437H118.809L115.678 36.3711H122.31Z" fill="black"/>
<path d="M96.2389 26.6085H108.502L98.8481 40.6328H108.872V41.8286H95.6953L105.436 27.8044H96.2389V26.6085Z" fill="black"/>
<path d="M91.7896 39.0239L92.4419 39.6109C92.2535 39.8283 91.978 40.082 91.6157 40.3719C91.2533 40.6618 90.7967 40.9372 90.2458 41.1982C89.7095 41.4446 89.0717 41.6548 88.3325 41.8287C87.6077 42.0026 86.7815 42.0896 85.8537 42.0896C84.3897 42.0896 83.1286 41.8649 82.0705 41.4156C81.0123 40.9517 80.1426 40.3502 79.4613 39.6109C78.78 38.8572 78.2727 38.0019 77.9393 37.0452C77.6204 36.074 77.4609 35.0811 77.4609 34.0664C77.4609 32.8923 77.6639 31.8341 78.0697 30.892C78.4756 29.9353 79.0482 29.1235 79.7874 28.4567C80.5267 27.7754 81.4109 27.2536 82.4401 26.8912C83.4838 26.5288 84.6361 26.3477 85.8972 26.3477C86.767 26.3477 87.5425 26.4346 88.2237 26.6086C88.905 26.7825 89.4993 27.0217 90.0067 27.3261C90.514 27.6305 90.9344 27.9929 91.2678 28.4132C91.6157 28.8336 91.8983 29.2902 92.1157 29.7831H90.5068C90.4053 29.4787 90.2241 29.1815 89.9632 28.8916C89.7168 28.5872 89.3906 28.319 88.9847 28.0871C88.5934 27.8552 88.1368 27.6667 87.6149 27.5218C87.1076 27.3768 86.5423 27.3043 85.919 27.3043C85.0058 27.3043 84.1578 27.471 83.375 27.8044C82.6068 28.1378 81.94 28.6017 81.3747 29.196C80.8094 29.7903 80.3673 30.5006 80.0484 31.3268C79.744 32.1386 79.5918 33.0373 79.5918 34.0229C79.5918 34.9507 79.7367 35.8421 80.0266 36.6973C80.331 37.5526 80.7731 38.3063 81.3529 38.9586C81.9328 39.6109 82.6575 40.1327 83.5272 40.5241C84.397 40.9155 85.3971 41.1112 86.5278 41.1112C88.5571 41.1112 90.3111 40.4154 91.7896 39.0239Z" fill="black"/>
<path d="M55.9668 26.6085L62.9463 39.6761H63.0333L70.078 26.6085H71.5783V41.8286H69.5997V29.5003H69.5127L62.6419 42.0896H62.2505L55.5319 29.4134H55.445V41.8286H54.4883V26.6085H55.9668Z" fill="black"/>
<path d="M44.2461 26.6085H46.2247V41.8286H44.2461V26.6085Z" fill="black"/>
<path d="M28.1211 41.8286V26.6085H30.0997V40.6328H37.9489V41.8286H28.1211Z" fill="black"/>
<path d="M10.2148 41.8286V26.6085H12.1935V35.1753L20.3471 26.6085H21.4343L15.9115 32.5009L22.6953 41.8286H20.4341L14.6504 33.849L12.1935 36.4799V41.8286H10.2148Z" fill="black"/>
<path d="M146.282 11.9828H138.781L136.867 16.4618H135.867L142.303 1.2417H143.39L150.479 16.4618H148.369L146.282 11.9828ZM145.826 11.0043L142.412 3.67692H142.325L139.194 11.0043H145.826Z" fill="black"/>
<path d="M119.914 16.4618V1.2417H121.893V9.80846L130.046 1.2417H131.133L125.611 7.13406L132.395 16.4618H130.133L124.35 8.48213L121.893 11.113V16.4618H119.914Z" fill="black"/>
<path d="M101.844 1.2417H114.107L104.454 15.266H114.477V16.4618H101.301L111.042 2.43757H101.844V1.2417Z" fill="black"/>
<path d="M85.6875 12.6134H87.166C87.1805 12.8598 87.2385 13.1642 87.34 13.5266C87.4414 13.8745 87.6371 14.2151 87.927 14.5485C88.2169 14.8819 88.6373 15.1718 89.1881 15.4182C89.739 15.6501 90.471 15.7661 91.3842 15.7661C92.5293 15.7661 93.4425 15.5487 94.1238 15.1138C94.8196 14.6789 95.1675 13.9904 95.1675 13.0482C95.1675 12.2945 94.95 11.6929 94.5152 11.2436C94.0803 10.7942 93.5295 10.4173 92.8627 10.1129C92.2104 9.79401 91.5001 9.51135 90.7319 9.26493C89.9636 9.01851 89.2461 8.72136 88.5793 8.37347C87.927 8.02558 87.3835 7.59072 86.9486 7.06889C86.5137 6.54705 86.2963 5.85852 86.2963 5.0033C86.2963 4.35101 86.4268 3.77119 86.6877 3.26385C86.9631 2.75652 87.3255 2.33615 87.7748 2.00276C88.2387 1.66936 88.7678 1.4157 89.3621 1.24175C89.9709 1.06781 90.6087 0.980835 91.2755 0.980835C91.9133 0.980835 92.5221 1.06056 93.1019 1.22001C93.6962 1.36496 94.2253 1.58964 94.6891 1.89404C95.153 2.18395 95.5371 2.54633 95.8415 2.98119C96.1459 3.40156 96.3416 3.87991 96.4286 4.41624H94.95C94.8341 3.56101 94.4427 2.93771 93.7759 2.54633C93.1236 2.14046 92.3264 1.93753 91.3842 1.93753C90.8189 1.93753 90.3188 2.01 89.8839 2.15496C89.449 2.28542 89.0794 2.46661 88.775 2.69854C88.4851 2.91597 88.2604 3.17688 88.101 3.48128C87.956 3.78569 87.8835 4.11183 87.8835 4.45972C87.8835 5.08302 88.1082 5.58311 88.5576 5.95999C89.0069 6.33687 89.565 6.67026 90.2318 6.96017C90.9131 7.25008 91.6451 7.52549 92.4278 7.78641C93.2251 8.04732 93.9571 8.37347 94.6239 8.76484C95.3052 9.14172 95.8705 9.62007 96.3198 10.1999C96.7692 10.7652 96.9939 11.4972 96.9939 12.3959C96.9939 13.0482 96.8634 13.6425 96.6025 14.1789C96.3416 14.7152 95.972 15.1718 95.4936 15.5487C95.0153 15.9256 94.4355 16.2155 93.7542 16.4184C93.0874 16.6213 92.3336 16.7228 91.4929 16.7228C90.6667 16.7228 89.9057 16.6286 89.2099 16.4401C88.5141 16.2372 87.9053 15.9618 87.3835 15.6139C86.8761 15.2515 86.4702 14.8167 86.1658 14.3093C85.8759 13.802 85.7165 13.2367 85.6875 12.6134Z" fill="black"/>
<path d="M72.2422 1.2417H82.07V2.43757H74.2208V7.89507H80.9611V8.89525H74.2208V15.266H82.07V16.4618H72.2422V1.2417Z" fill="black"/>
<path d="M61.9961 1.2417H63.9747V16.4618H61.9961V1.2417Z" fill="black"/>
<path d="M52.7435 1.24175H53.7437V16.7228H53.635L41.5676 4.82935H41.4806V16.4619H40.4805V0.980835H40.5892L52.6566 12.8743H52.7435V1.24175Z" fill="black"/>
<path d="M34.3815 9.67805V16.4619H32.5116V15.5704C31.9607 15.8603 31.265 16.1285 30.4242 16.3749C29.5835 16.6068 28.6196 16.7228 27.5324 16.7228C26.0829 16.7228 24.8363 16.4981 23.7926 16.0488C22.7489 15.5849 21.8865 14.9761 21.2052 14.2223C20.5384 13.4541 20.0383 12.5916 19.7049 11.6349C19.386 10.6637 19.2266 9.66356 19.2266 8.63438C19.2266 7.43127 19.4367 6.35861 19.8571 5.41642C20.2775 4.45972 20.8645 3.65523 21.6183 3.00294C22.3721 2.35065 23.2635 1.85056 24.2927 1.50267C25.3364 1.15478 26.4742 0.980835 27.7063 0.980835C28.779 0.980835 29.7067 1.10404 30.4895 1.35047C31.2867 1.58239 31.9535 1.8723 32.4898 2.22019C33.0261 2.56808 33.4465 2.94495 33.7509 3.35083C34.0698 3.7422 34.2945 4.09734 34.4249 4.41624H32.8594C32.7725 4.11183 32.5768 3.81468 32.2724 3.52477C31.9825 3.22037 31.6056 2.9522 31.1417 2.72028C30.6779 2.48835 30.1488 2.29991 29.5545 2.15496C28.9602 2.01 28.3224 1.93753 27.6411 1.93753C26.6119 1.93753 25.706 2.10422 24.9232 2.43762C24.155 2.77101 23.5027 3.24211 22.9664 3.85092C22.43 4.45972 22.0242 5.18449 21.7488 6.02522C21.4878 6.86595 21.3574 7.78641 21.3574 8.78659C21.3574 9.80126 21.4951 10.7362 21.7705 11.5914C22.0604 12.4322 22.488 13.1642 23.0533 13.7875C23.6187 14.3963 24.3289 14.8746 25.1842 15.2225C26.0394 15.5704 27.0396 15.7444 28.1847 15.7444C29.0544 15.7444 29.8299 15.6429 30.5112 15.44C31.1925 15.237 31.8593 14.9254 32.5116 14.505V10.5695H30.0763V9.67805H34.3815Z" fill="black"/>
<path d="M10.8915 11.9828H3.39013L1.47674 16.4618H0.476562L6.9125 1.2417H7.99966L15.0879 16.4618H12.9788L10.8915 11.9828ZM10.4349 11.0043L7.02122 3.67692H6.93425L3.80324 11.0043H10.4349Z" fill="black"/>
</svg>
