<svg width="301" height="16" viewBox="0 0 301 16" fill="none" xmlns="http://www.w3.org/2000/svg">
<path d="M288.363 15.5359V0.310425H290.343V8.88017L298.499 0.310425H299.587L294.062 6.20484L300.848 15.5359H298.586L292.8 7.55338L290.343 10.1852V15.5359H288.363Z" fill="black"/>
<path d="M278.715 11.0552H271.211L269.297 15.5359H268.297L274.735 0.310425H275.823L282.913 15.5359H280.803L278.715 11.0552ZM278.259 10.0765L274.844 2.7465H274.757L271.625 10.0765H278.259Z" fill="black"/>
<path d="M252.18 0.310425H264.448L254.791 14.3396H264.818V15.5359H251.637L261.381 1.50671H252.18V0.310425Z" fill="black"/>
<path d="M247.724 12.73L248.377 13.3173C248.188 13.5348 247.913 13.7886 247.55 14.0786C247.188 14.3686 246.731 14.6441 246.18 14.9051C245.643 15.1516 245.005 15.3619 244.266 15.5359C243.541 15.7099 242.714 15.7969 241.786 15.7969C240.322 15.7969 239.06 15.5721 238.002 15.1226C236.943 14.6586 236.073 14.0568 235.392 13.3173C234.71 12.5633 234.203 11.7078 233.869 10.7507C233.55 9.77922 233.391 8.78594 233.391 7.77091C233.391 6.59637 233.594 5.53784 234 4.59532C234.406 3.63829 234.978 2.82627 235.718 2.15925C236.457 1.47773 237.342 0.955713 238.372 0.593203C239.416 0.230693 240.568 0.0494385 241.83 0.0494385C242.7 0.0494385 243.476 0.136441 244.157 0.310445C244.839 0.48445 245.433 0.723707 245.941 1.02822C246.448 1.33272 246.869 1.69523 247.202 2.11575C247.55 2.53626 247.833 2.99302 248.051 3.48604H246.441C246.339 3.18153 246.158 2.88427 245.897 2.59426C245.651 2.28975 245.324 2.02149 244.918 1.78949C244.527 1.55748 244.07 1.36898 243.548 1.22397C243.041 1.07897 242.475 1.00647 241.852 1.00647C240.938 1.00647 240.09 1.17322 239.307 1.50673C238.538 1.84024 237.871 2.30425 237.306 2.89877C236.74 3.49329 236.298 4.20381 235.979 5.03033C235.674 5.84235 235.522 6.74138 235.522 7.72741C235.522 8.65543 235.667 9.54721 235.957 10.4027C236.262 11.2583 236.704 12.0123 237.284 12.6648C237.864 13.3173 238.589 13.8393 239.459 14.2308C240.329 14.6224 241.33 14.8181 242.461 14.8181C244.491 14.8181 246.245 14.1221 247.724 12.73Z" fill="black"/>
<path d="M211.897 0.310425L218.879 13.3825H218.966L226.013 0.310425H227.514V15.5359H225.535V3.20326H225.448L218.574 15.7969H218.183L211.462 3.11626H211.375V15.5359H210.418V0.310425H211.897Z" fill="black"/>
<path d="M200.172 0.310425H202.151V15.5359H200.172V0.310425Z" fill="black"/>
<path d="M184.039 15.5359V0.310425H186.018V14.3396H193.87V15.5359H184.039Z" fill="black"/>
<path d="M166.125 15.5359V0.310425H168.104V8.88017L176.261 0.310425H177.348L171.824 6.20484L178.61 15.5359H176.348L170.562 7.55338L168.104 10.1852V15.5359H166.125Z" fill="black"/>
<path d="M146.7 11.0552H139.196L137.282 15.5359H136.281L142.719 0.310425H143.807L150.898 15.5359H148.788L146.7 11.0552ZM146.243 10.0765L142.828 2.7465H142.741L139.609 10.0765H146.243Z" fill="black"/>
<path d="M120.328 15.5359V0.310425H122.307V8.88017L130.464 0.310425H131.551L126.027 6.20484L132.813 15.5359H130.551L124.765 7.55338L122.307 10.1852V15.5359H120.328Z" fill="black"/>
<path d="M102.251 0.310425H114.518L104.861 14.3396H114.888V15.5359H101.707L111.451 1.50671H102.251V0.310425Z" fill="black"/>
<path d="M86.0898 11.686H87.5689C87.5834 11.9325 87.6414 12.237 87.7429 12.5995C87.8444 12.9476 88.0401 13.2883 88.3302 13.6218C88.6202 13.9553 89.0407 14.2453 89.5917 14.4918C90.1427 14.7239 90.875 14.8399 91.7885 14.8399C92.934 14.8399 93.8476 14.6224 94.5291 14.1873C95.2251 13.7523 95.5731 13.0636 95.5731 12.121C95.5731 11.367 95.3556 10.7652 94.9206 10.3157C94.4856 9.86622 93.9346 9.48921 93.2675 9.1847C92.615 8.86569 91.9045 8.58293 91.136 8.33642C90.3675 8.08992 89.6497 7.79266 88.9827 7.44465C88.3302 7.09664 87.7864 6.66163 87.3514 6.13961C86.9164 5.6176 86.6989 4.92883 86.6989 4.0733C86.6989 3.42078 86.8294 2.84077 87.0904 2.33325C87.3659 1.82574 87.7284 1.40523 88.1779 1.07172C88.6419 0.738208 89.1712 0.48445 89.7657 0.310445C90.3747 0.136441 91.0127 0.0494385 91.6798 0.0494385C92.3178 0.0494385 92.9268 0.129191 93.5068 0.288695C94.1013 0.433699 94.6306 0.658455 95.0946 0.962964C95.5586 1.25297 95.9429 1.61548 96.2474 2.0505C96.5519 2.47101 96.7477 2.94952 96.8347 3.48604H95.3556C95.2396 2.63051 94.8481 2.00699 94.1811 1.61548C93.5286 1.20947 92.731 1.00647 91.7885 1.00647C91.223 1.00647 90.7227 1.07897 90.2877 1.22397C89.8527 1.35447 89.4829 1.53573 89.1784 1.76774C88.8884 1.98524 88.6637 2.24625 88.5042 2.55076C88.3592 2.85527 88.2867 3.18153 88.2867 3.52954C88.2867 4.15306 88.5114 4.65332 88.9609 5.03033C89.4104 5.40734 89.9687 5.74085 90.6357 6.03086C91.3172 6.32087 92.0495 6.59637 92.8325 6.85738C93.6301 7.11839 94.3623 7.44465 95.0293 7.83616C95.7109 8.21317 96.2764 8.69168 96.7259 9.2717C97.1754 9.83722 97.4002 10.5695 97.4002 11.4685C97.4002 12.121 97.2697 12.7155 97.0087 13.2521C96.7477 13.7886 96.3779 14.2453 95.8994 14.6224C95.4209 14.9994 94.8408 15.2894 94.1593 15.4924C93.4923 15.6954 92.7383 15.7969 91.8973 15.7969C91.0707 15.7969 90.3095 15.7026 89.6134 15.5141C88.9174 15.3111 88.3084 15.0356 87.7864 14.6876C87.2789 14.3251 86.8729 13.8901 86.5684 13.3826C86.2783 12.8751 86.1188 12.3095 86.0898 11.686Z" fill="black"/>
<path d="M72.6367 0.310425H82.468V1.50671H74.616V6.96612H81.3587V7.96664H74.616V14.3396H82.468V15.5359H72.6367V0.310425Z" fill="black"/>
<path d="M62.3906 0.310425H64.3699V15.5359H62.3906V0.310425Z" fill="black"/>
<path d="M53.1345 0.310445H54.1351V15.7969H54.0263L41.9547 3.8993H41.8677V15.5359H40.8672V0.0494385H40.9759L53.0475 11.947H53.1345V0.310445Z" fill="black"/>
<path d="M34.7656 8.74969V15.5359H32.8951V14.6441C32.3441 14.9341 31.6481 15.2024 30.807 15.4489C29.966 15.6809 29.0017 15.7969 27.9142 15.7969C26.4642 15.7969 25.2171 15.5721 24.1731 15.1226C23.1291 14.6586 22.2663 14.0496 21.5848 13.2956C20.9178 12.527 20.4175 11.6643 20.084 10.7072C19.765 9.73571 19.6055 8.73519 19.6055 7.70566C19.6055 6.50212 19.8157 5.42909 20.2362 4.48656C20.6567 3.52954 21.244 2.72476 21.998 2.07225C22.7521 1.41973 23.6438 0.919463 24.6734 0.571453C25.7174 0.223443 26.8557 0.0494385 28.0882 0.0494385C29.1612 0.0494385 30.0893 0.172692 30.8723 0.419198C31.6698 0.651205 32.3368 0.941214 32.8733 1.28922C33.4099 1.63723 33.8304 2.01424 34.1349 2.42026C34.4539 2.81177 34.6786 3.16703 34.8092 3.48604H33.2431C33.1561 3.18153 32.9604 2.88427 32.6558 2.59426C32.3658 2.28975 31.9888 2.02149 31.5248 1.78949C31.0608 1.55748 30.5315 1.36898 29.937 1.22397C29.3425 1.07897 28.7045 1.00647 28.023 1.00647C26.9934 1.00647 26.0872 1.17322 25.3041 1.50673C24.5356 1.84024 23.8831 2.3115 23.3466 2.92052C22.8101 3.52954 22.404 4.25456 22.1285 5.09558C21.8675 5.93661 21.737 6.85738 21.737 7.85791C21.737 8.87294 21.8748 9.80822 22.1503 10.6637C22.4403 11.5048 22.8681 12.237 23.4336 12.8606C23.9991 13.4696 24.7096 13.9481 25.5651 14.2961C26.4207 14.6441 27.4212 14.8181 28.5667 14.8181C29.4367 14.8181 30.2125 14.7166 30.894 14.5136C31.5756 14.3106 32.2426 13.9988 32.8951 13.5783V9.64146H30.459V8.74969H34.7656Z" fill="black"/>
<path d="M11.2662 11.0552H3.76224L1.84818 15.5359H0.847656L7.28584 0.310425H8.37337L15.4641 15.5359H13.3543L11.2662 11.0552ZM10.8094 10.0765L7.39459 2.7465H7.30759L4.1755 10.0765H10.8094Z" fill="black"/>
</svg>
